<?xml version="1.0" ?>
<!-- Uploaded to: SVG Repo, www.svgrepo.com, Generator: SVG Repo Mixer Tools -->
<svg width="800px" height="800px" viewBox="0 0 32 32" xmlns="http://www.w3.org/2000/svg">
<defs>
<style>.cls-1{fill:#04009a;}.cls-2{fill:#77acf1;}</style>
</defs>
<g data-name="40. Love Box" id="_40._Love_Box">
<path class="cls-1" d="M16,30a1,1,0,0,1-.45-.11l-4.14-2.07A22,22,0,0,1,2,18.76,15.43,15.43,0,0,1,0,11.25a9.25,9.25,0,0,1,14.8-7.4l1.2.9,1.2-.9A9.25,9.25,0,0,1,32,11.25a15.43,15.43,0,0,1-1.95,7.51,22,22,0,0,1-9.46,9.06l-4.14,2.07A1,1,0,0,1,16,30ZM9.25,4A7.26,7.26,0,0,0,2,11.25a13.48,13.48,0,0,0,1.7,6.54A20,20,0,0,0,12.3,26L16,27.88,19.7,26a20,20,0,0,0,8.6-8.24A13.48,13.48,0,0,0,30,11.25a7.25,7.25,0,0,0-11.6-5.8L16.6,6.8a1,1,0,0,1-1.2,0L13.6,5.45A7.27,7.27,0,0,0,9.25,4Z"/>
<path class="cls-2" d="M14,10h4a0,0,0,0,1,0,0v3a1,1,0,0,1-1,1H15a1,1,0,0,1-1-1V10A0,0,0,0,1,14,10Z"/>
<path class="cls-1" d="M20,23H12a3,3,0,0,1-3-3V12a3,3,0,0,1,3-3h8a3,3,0,0,1,3,3v8A3,3,0,0,1,20,23ZM12,11a1,1,0,0,0-1,1v8a1,1,0,0,0,1,1h8a1,1,0,0,0,1-1V12a1,1,0,0,0-1-1Z"/>
<path class="cls-1" d="M15,19H14a1,1,0,0,1,0-2h1a1,1,0,0,1,0,2Z"/>
</g>
</svg>